<svg
  width="35"
  height="24"
  viewBox="0 0 35 24"
  xmlns="http://www.w3.org/2000/svg"
>
  <path
    d="M13.3725 0.000132826C13.222 0.00136134 13.0704 0.0225347 12.9185 0.0632925C11.9465 0.324027 11.3711 1.33011 11.6335 2.31032C11.7335 2.68408 11.9395 2.99829 12.2116 3.23171C9.90994 4.34792 8.34553 6.49609 7.92769 8.92046L6.2994 9.46917C5.4875 9.26126 4.75176 9.16565 4.09313 9.17324C3.03112 9.18531 2.16725 9.46375 1.49822 9.96599C0.160004 10.9702 -0.186726 12.7135 0.0868716 14.3493C0.360325 15.9851 1.22939 17.6104 2.56869 18.6378C3.90792 19.6651 5.80005 20.008 7.70172 18.9901C8.02185 18.8186 8.33592 18.6425 8.62766 18.4864C8.84395 19.2648 9.64068 19.7265 10.4162 19.5184C11.1572 19.3196 11.612 18.5816 11.4754 17.8338C12.7027 18.5601 13.9682 18.9665 15.2466 19.0916C14.2281 20.6015 12.9113 21.9512 11.3464 23.0503C13.3521 25.054 27.5891 21.2543 27.9405 18.5994C25.9973 18.4198 24.1447 17.8814 22.48 17.0411C27.3937 13.8626 31.7773 7.41025 34.0899 0.0902476L31.0208 1.12683C27.8331 5.99124 22.1889 8.62872 18.9412 3.15026C17.7436 2.59913 16.4259 2.36061 15.1111 2.45702C15.2308 2.11809 15.252 1.74065 15.1519 1.36631C14.9305 0.539379 14.1842 -0.00651561 13.3725 0.000132826ZM4.14719 10.5214C4.51647 10.5195 4.93235 10.5583 5.39825 10.6479C6.74644 13.3021 8.23901 15.2684 9.82004 16.6347C9.76461 16.6429 9.70832 16.6537 9.65289 16.6687C9.64229 16.6715 9.63174 16.6745 9.62124 16.6777C9.41557 16.7011 9.21742 16.7531 9.02736 16.8176C8.33072 17.0539 7.67382 17.474 7.06491 17.7999C5.57227 18.5989 4.3947 18.3354 3.39064 17.5651C2.38651 16.7947 1.63776 15.4333 1.41923 14.1257C1.20048 12.8181 1.48774 11.6616 2.30882 11.0454C2.71951 10.7373 3.31649 10.5261 4.14719 10.5214Z"
    fill="white"
  />
</svg>
